<?xml version="1.0" encoding="UTF-8" standalone="no"?><!DOCTYPE svg PUBLIC "-//W3C//DTD SVG 1.1//EN" "http://www.w3.org/Graphics/SVG/1.1/DTD/svg11.dtd"><svg width="100%" height="100%" viewBox="0 0 2084 2084" version="1.1" xmlns="http://www.w3.org/2000/svg" xmlns:xlink="http://www.w3.org/1999/xlink" xml:space="preserve" xmlns:serif="http://www.serif.com/" style="fill-rule:evenodd;clip-rule:evenodd;stroke-linejoin:round;stroke-miterlimit:2;"><g><path d="M2083.33,520.833c0,-287.455 -233.377,-520.833 -520.833,-520.833l-1041.67,0c-287.455,0 -520.833,233.378 -520.833,520.833l-0,1041.67c-0,287.456 233.378,520.833 520.833,520.833l1041.67,0c287.456,0 520.833,-233.377 520.833,-520.833l0,-1041.67Z" style="fill:#6a70f4;"/></g><path d="M898.81,728.175c38.125,0 69.041,30.917 69.041,69.042c0,38.129 -30.916,69.046 -69.041,69.046c-38.125,-0 -69.038,-30.917 -69.038,-69.046c0,-38.125 30.913,-69.042 69.038,-69.042Zm-33.125,-372.879l738.679,-1.179c33.346,-0.088 49.113,17.642 49.113,50.992c-0.442,95.1 -38.463,184.82 -100.321,251.283c-71.488,76.812 -160.421,113.037 -263.65,113.687l-227.471,1.55c-36.9,0.25 -37.684,-8.554 -54.792,-37.921c-12.358,-21.108 -30.454,-37.745 -51.575,-48.483c-24.954,-12.683 -54.187,-17.062 -83.142,-10.9c-28.966,6.184 -53.816,22.05 -71.337,43.721c-17.683,21.858 -28.1,49.587 -28.1,79.171c-0,29.604 10.417,57.246 28.025,78.987c17.596,21.709 42.521,37.625 71.562,43.788c28.95,6.137 58.155,1.725 83.125,-10.988c22.138,-11.283 40.955,-29.083 53.313,-51.741c16.55,-30.355 21.225,-34.792 55.354,-34.792l298.221,-0.017c74.925,0 150.146,13.542 210.542,61.742c56.754,45.325 79.895,105.092 79.895,176.637c0.338,66.992 1.105,134.784 1.105,201.463c-0,109.296 -43.909,225.108 -116.267,313.471c-77.592,94.733 -180.921,153.45 -304.371,153.45l-741.908,-0c-39.925,-0 -51.813,-19.646 -50.296,-58.275c4.1,-93.6 44.983,-184.35 108.875,-251.638c69.896,-73.583 157.592,-113.304 258.933,-113.304l239.638,0.029c20.237,0 36.887,6.034 45.679,25.988c0.117,-0.042 3.329,6.683 3.729,7.433c11.579,21.875 29.396,38.954 50.354,49.692l0.075,-0.146c23.479,11.987 50.925,16.162 78.138,10.412c27.3,-5.783 50.737,-20.725 67.283,-41.137c16.55,-20.429 26.329,-46.4 26.329,-74.233l-0.179,-0c0,-27.996 -9.691,-53.954 -26.133,-74.263c-16.534,-20.412 -39.971,-35.354 -67.271,-41.137c-27.196,-5.767 -54.646,-1.609 -78.125,10.383c-21.121,10.783 -38.979,27.787 -50.513,49.383c-12.241,23.113 -18.983,33.567 -48.629,33.567l-339.162,0.033c-72.154,0 -144.346,-11.7 -199.496,-62.833c-64.171,-59.558 -71,-135.842 -71,-216.492c-0,-70.016 -3.613,-145.179 0.562,-214.516c6.43,-104.559 55.188,-205.15 128.417,-280.638c78.554,-80.987 183.15,-132.229 296.792,-132.229Zm698.108,85.929l-696.383,1.121c-90.25,-0 -173.725,41.7 -236.042,105.946c-57.933,59.721 -96.883,138.35 -103.283,219.812c-5.267,68.409 -1.121,144.396 -1.121,213.6c-0,53.659 1,114.321 43.358,153.63c35.754,33.158 91.446,39.616 137.888,39.616l320.479,-0.029c20.058,-32.033 48.079,-57.242 80.408,-73.746c40.696,-20.767 88.392,-27.967 135.825,-17.908c47.33,10.017 88.004,36.004 116.796,71.55c28.892,35.679 45.925,80.871 45.925,129.221l-0.175,-0c-0.017,48.483 -16.975,93.658 -45.766,129.191c-28.817,35.546 -69.48,61.534 -116.809,71.55c-47.45,10.042 -95.146,2.83 -135.837,-17.937l0.07,-0.146l-0.07,-0.029c-32.446,-16.579 -60.5,-41.742 -80.517,-73.588l-218.854,-0.029c-76.917,0 -143.2,30.504 -196.267,86.342c-42.371,44.616 -71.779,102.025 -81.662,162.421l682.958,-0c107.917,-0 182.254,-31.738 255.642,-121.359c58.687,-71.65 94.808,-164.408 96.412,-252.079c0.992,-67.216 -0.292,-135.579 -0.675,-203.158c-0.225,-45.517 -9.279,-82.525 -47.137,-112.729c-44.646,-35.638 -103.817,-42.984 -158.95,-42.984l-280.509,0.017c-20.841,33.6 -50.175,60.046 -84.083,77.329c-42.208,21.504 -91.679,28.942 -140.821,18.513c-49.071,-10.429 -91.221,-37.359 -121.087,-74.205c-29.855,-36.845 -47.446,-83.687 -47.463,-133.941c-0.012,-50.25 17.492,-97.063 47.213,-133.804c29.879,-36.975 72.062,-63.984 121.191,-74.455c49.113,-10.458 98.596,-3.054 140.834,18.421c33.85,17.213 63.17,43.571 84.025,77.08l210.2,-1.43c78.758,-0.516 144.879,-27.008 199.816,-86.046c39.454,-42.391 66.284,-96.92 74.471,-155.758Zm-362.529,773.696c38.125,-0 69.042,30.917 69.042,69.042c-0,38.129 -30.917,69.041 -69.042,69.041c-38.125,0 -69.038,-30.912 -69.038,-69.041c0,-38.125 30.913,-69.042 69.038,-69.042Z" style="fill:#fff;"/></svg>